<svg width="720" height="720" viewBox="0 0 720 720" fill="none" xmlns="http://www.w3.org/2000/svg">
<rect width="720" height="720" rx="130" fill="#ED2964"/>
<path d="M559.767 356.252C549.567 353.489 534.223 359.218 531.75 358.535C527.174 357.39 526.902 339.595 526.557 332.838C526.557 331.38 524.96 244.008 523.88 222.372C523.011 204.872 521.895 188.621 520.451 173.244C520.291 171.348 519.835 164.961 518.163 163.478C516.785 162.427 515.072 161.907 513.341 162.014C511.78 162.014 510.232 162.284 508.765 162.814C506.544 163.848 504.681 165.516 503.411 167.607C487.377 189.47 381.516 331.287 373.055 340.641C373.055 340.641 381.011 301.124 385.038 261.533C388.424 228.237 388.171 195.033 386.592 183.944C386.271 182.098 385.587 181.526 383.712 181.526C381.31 181.636 378.965 182.284 376.848 183.421C372.276 186.07 368.09 189.333 364.409 193.119C294.719 257.582 228.465 337.607 169.346 427.354C151.925 456.608 135.033 487.947 118.67 521.372C115.074 528.756 110.227 540.355 109.086 543.986C108.739 545.071 108.494 546.185 108.352 547.315C107.415 552.059 108.352 555.277 111.139 556.582C114.254 558.083 118.121 555.394 120.588 550.878C120.588 550.736 120.773 550.601 120.841 550.465C192.38 404.722 266.683 324.26 352.839 256.462C354.578 255.096 356.317 253.705 358.056 252.358C358.308 262.976 357.342 273.588 355.176 283.986C352.709 295.142 348.929 308.403 344.47 323.916C339.37 341.761 333.56 362.024 327.979 385.53C325.352 396.483 314.466 442.873 325.167 446.891C331.186 449.168 346.462 439.587 357.532 432.123C389.546 410.586 449.01 354.424 489.449 316.956C489.449 316.956 490.269 369.439 490.177 374.004C490.084 378.57 488.487 425.761 495.783 430.616C500.716 433.883 525.515 415.761 549.869 408.322C560.871 404.944 568.167 405.448 572.188 403.756C573.699 403.141 574.846 401.818 574.982 398.329C575.315 388.059 571.084 359.285 559.767 356.252Z" fill="white"/>
</svg>
