<svg width="115" height="115" viewBox="0 0 115 115" fill="none" xmlns="http://www.w3.org/2000/svg">
<rect width="115" height="115" rx="6" fill="#FF4C00"/>
<g clip-path="url(#clip0)">
<path fill-rule="evenodd" clip-rule="evenodd" d="M70.7575 74.1101C73.4631 74.3397 77.3156 74.667 78.6811 71.5707C78.8891 71.1008 79.0398 70.6072 79.1291 70.1004C79.9119 65.5021 80.0559 60.8206 79.5599 56.184C79.2411 53.2948 78.5224 49.2258 75.6847 47.8795C80.2879 45.2253 75.362 39.8905 72.8257 38.3437C64.6861 33.3718 52.6286 32.9891 44.0169 36.8615C41.5499 37.9609 37.0494 41.1655 38.8496 44.9574C39.1683 45.6239 39.651 46.0212 40.1471 46.429C40.3964 46.6336 40.6485 46.8421 40.8858 47.0876C40.8125 47.0111 39.4217 48.4603 38.4749 50.8716C37.7721 52.5373 37.2547 54.2729 36.9294 56.048C36.408 58.924 36.1199 61.8355 36.0679 64.7577C36.1026 67.9834 36.576 71.8267 39.211 74.0758C41.1819 75.7652 44.0409 75.0076 46.4598 74.3661C46.9586 74.2341 47.4386 74.1074 47.888 74.0071C51.4058 73.2311 54.9755 72.5461 58.584 72.6516C60.9243 72.7229 63.2352 73.0766 65.5475 73.4317C67.265 73.6943 68.9812 73.9583 70.7094 74.1048L70.7575 74.1101ZM84.5325 54.583C84.8818 58.1149 85.0365 61.6613 84.9938 65.2091C84.9938 65.605 84.9898 66.0062 84.9418 66.4062C84.9418 70.1598 84.9072 73.9952 84.0804 77.6723C83.255 81.3402 78.8424 81.2781 75.8994 81.2359C75.7407 81.2333 75.5874 81.2319 75.438 81.2306C72.5723 81.2042 69.72 80.836 66.8676 80.4691C64.218 80.1272 61.5697 79.7854 58.9107 79.7181C55.9183 79.6402 52.9273 80.0401 49.9509 80.4387C49.0375 80.5615 48.1254 80.6829 47.2159 80.7911C46.1425 80.9165 45.0437 81.1132 43.9342 81.3111C41.4032 81.7625 38.8203 82.2231 36.3733 81.8826C32.0581 81.261 30.8179 75.653 30.4526 71.8861C29.8632 65.7924 29.5058 60.9222 31.654 53.3463C32.3688 50.8241 33.4796 48.9579 34.9998 46.8831C34.9998 46.8817 34.8504 46.7247 34.6531 46.5188C34.397 46.2522 34.0623 45.9024 33.8757 45.7018C33.1182 44.9442 32.5208 44.0467 32.1141 43.0595C30.6206 39.0775 34.0223 35.5113 36.972 33.6794C48.3147 26.6314 63.9713 26.1114 75.6714 32.2988C78.9264 34.0199 82.2215 36.6107 83.603 40.2707C84.6578 43.0621 84.8858 46.9213 81.9068 48.4893C81.5908 48.5936 81.2521 48.6068 80.928 48.5289C83.4697 49.1651 84.2751 52.2047 84.5325 54.583Z" fill="white"/>
</g>
<defs>
<clipPath id="clip0">
<rect width="55" height="54" fill="white" transform="translate(30 28)"/>
</clipPath>
</defs>
</svg>
